<mxfile host="app.diagrams.net" modified="2024-07-06T13:23:35.265Z" agent="Mozilla/5.0 (Macintosh; Intel Mac OS X 10_15_7) AppleWebKit/537.36 (KHTML, like Gecko) Chrome/123.0.0.0 Safari/537.36" etag="JFhwZegEnBuukyx_YYq9" version="24.6.4" type="github">
  <diagram name="第 1 页" id="CWMv_Qcl_aHFp7uZaqug">
    <mxGraphModel dx="1462" dy="1760" grid="0" gridSize="10" guides="1" tooltips="1" connect="1" arrows="1" fold="1" page="0" pageScale="1" pageWidth="827" pageHeight="1169" math="0" shadow="0">
      <root>
        <mxCell id="0" />
        <mxCell id="1" parent="0" />
        <mxCell id="P7E3yrC0t6opgTIcdVqb-108" value="" style="rounded=0;whiteSpace=wrap;html=1;dashed=1;" vertex="1" parent="1">
          <mxGeometry x="-154" y="-518" width="827" height="165" as="geometry" />
        </mxCell>
        <mxCell id="P7E3yrC0t6opgTIcdVqb-106" value="" style="rounded=0;whiteSpace=wrap;html=1;dashed=1;" vertex="1" parent="1">
          <mxGeometry x="-155" y="-991" width="827" height="294" as="geometry" />
        </mxCell>
        <mxCell id="P7E3yrC0t6opgTIcdVqb-1" value="" style="rounded=0;whiteSpace=wrap;html=1;" vertex="1" parent="1">
          <mxGeometry x="-41" y="-914" width="120" height="110" as="geometry" />
        </mxCell>
        <mxCell id="P7E3yrC0t6opgTIcdVqb-2" value="标注数据集" style="text;html=1;align=center;verticalAlign=middle;whiteSpace=wrap;rounded=0;" vertex="1" parent="1">
          <mxGeometry x="-151" y="-874" width="70" height="30" as="geometry" />
        </mxCell>
        <mxCell id="P7E3yrC0t6opgTIcdVqb-3" value="LLM_1" style="rounded=0;whiteSpace=wrap;html=1;" vertex="1" parent="1">
          <mxGeometry x="-21" y="-904" width="80" height="20" as="geometry" />
        </mxCell>
        <mxCell id="P7E3yrC0t6opgTIcdVqb-4" value="LLM_2" style="rounded=0;whiteSpace=wrap;html=1;" vertex="1" parent="1">
          <mxGeometry x="-21" y="-874" width="80" height="20" as="geometry" />
        </mxCell>
        <mxCell id="P7E3yrC0t6opgTIcdVqb-5" value="LLM_N" style="rounded=0;whiteSpace=wrap;html=1;" vertex="1" parent="1">
          <mxGeometry x="-21" y="-834" width="80" height="20" as="geometry" />
        </mxCell>
        <mxCell id="P7E3yrC0t6opgTIcdVqb-7" value="......" style="text;html=1;align=center;verticalAlign=middle;whiteSpace=wrap;rounded=0;" vertex="1" parent="1">
          <mxGeometry x="-11" y="-857" width="60" height="20" as="geometry" />
        </mxCell>
        <mxCell id="P7E3yrC0t6opgTIcdVqb-8" style="edgeStyle=orthogonalEdgeStyle;rounded=0;orthogonalLoop=1;jettySize=auto;html=1;exitX=1;exitY=0.5;exitDx=0;exitDy=0;entryX=-0.008;entryY=0.566;entryDx=0;entryDy=0;entryPerimeter=0;" edge="1" parent="1" source="P7E3yrC0t6opgTIcdVqb-2">
          <mxGeometry relative="1" as="geometry">
            <mxPoint x="-41.960000000000036" y="-858.7399999999999" as="targetPoint" />
          </mxGeometry>
        </mxCell>
        <mxCell id="P7E3yrC0t6opgTIcdVqb-9" value="N个大模型分别预测" style="text;html=1;align=center;verticalAlign=middle;whiteSpace=wrap;rounded=0;" vertex="1" parent="1">
          <mxGeometry x="-17" y="-944" width="60" height="30" as="geometry" />
        </mxCell>
        <mxCell id="P7E3yrC0t6opgTIcdVqb-34" style="edgeStyle=orthogonalEdgeStyle;rounded=0;orthogonalLoop=1;jettySize=auto;html=1;exitX=1;exitY=0.5;exitDx=0;exitDy=0;entryX=0;entryY=0.5;entryDx=0;entryDy=0;" edge="1" parent="1" source="P7E3yrC0t6opgTIcdVqb-10" target="P7E3yrC0t6opgTIcdVqb-28">
          <mxGeometry relative="1" as="geometry" />
        </mxCell>
        <mxCell id="P7E3yrC0t6opgTIcdVqb-10" value="" style="rounded=0;whiteSpace=wrap;html=1;" vertex="1" parent="1">
          <mxGeometry x="187" y="-914" width="172" height="110" as="geometry" />
        </mxCell>
        <mxCell id="P7E3yrC0t6opgTIcdVqb-11" value="比较各模型的预测结果，选取准确率最高的前K个模型" style="text;html=1;align=center;verticalAlign=middle;whiteSpace=wrap;rounded=0;" vertex="1" parent="1">
          <mxGeometry x="198" y="-951" width="126" height="30" as="geometry" />
        </mxCell>
        <mxCell id="P7E3yrC0t6opgTIcdVqb-12" style="edgeStyle=orthogonalEdgeStyle;rounded=0;orthogonalLoop=1;jettySize=auto;html=1;exitX=1;exitY=0.5;exitDx=0;exitDy=0;entryX=-0.022;entryY=0.183;entryDx=0;entryDy=0;entryPerimeter=0;" edge="1" parent="1" source="P7E3yrC0t6opgTIcdVqb-3" target="P7E3yrC0t6opgTIcdVqb-10">
          <mxGeometry relative="1" as="geometry" />
        </mxCell>
        <mxCell id="P7E3yrC0t6opgTIcdVqb-13" value="result from LLM_1" style="text;html=1;align=center;verticalAlign=middle;whiteSpace=wrap;rounded=0;" vertex="1" parent="1">
          <mxGeometry x="85" y="-922" width="100" height="30" as="geometry" />
        </mxCell>
        <mxCell id="P7E3yrC0t6opgTIcdVqb-14" style="edgeStyle=orthogonalEdgeStyle;rounded=0;orthogonalLoop=1;jettySize=auto;html=1;exitX=1;exitY=0.5;exitDx=0;exitDy=0;entryX=-0.003;entryY=0.45;entryDx=0;entryDy=0;entryPerimeter=0;" edge="1" parent="1" source="P7E3yrC0t6opgTIcdVqb-4" target="P7E3yrC0t6opgTIcdVqb-10">
          <mxGeometry relative="1" as="geometry" />
        </mxCell>
        <mxCell id="P7E3yrC0t6opgTIcdVqb-15" value="result from LLM_2" style="text;html=1;align=center;verticalAlign=middle;whiteSpace=wrap;rounded=0;" vertex="1" parent="1">
          <mxGeometry x="85" y="-891" width="100" height="30" as="geometry" />
        </mxCell>
        <mxCell id="P7E3yrC0t6opgTIcdVqb-16" style="edgeStyle=orthogonalEdgeStyle;rounded=0;orthogonalLoop=1;jettySize=auto;html=1;exitX=1;exitY=0.5;exitDx=0;exitDy=0;entryX=-0.009;entryY=0.825;entryDx=0;entryDy=0;entryPerimeter=0;" edge="1" parent="1" source="P7E3yrC0t6opgTIcdVqb-5" target="P7E3yrC0t6opgTIcdVqb-10">
          <mxGeometry relative="1" as="geometry" />
        </mxCell>
        <mxCell id="P7E3yrC0t6opgTIcdVqb-17" value="result from LLM_N" style="text;html=1;align=center;verticalAlign=middle;whiteSpace=wrap;rounded=0;" vertex="1" parent="1">
          <mxGeometry x="80" y="-851" width="104" height="30" as="geometry" />
        </mxCell>
        <mxCell id="P7E3yrC0t6opgTIcdVqb-20" value="" style="group" vertex="1" connectable="0" parent="1">
          <mxGeometry x="198" y="-905" width="147" height="20" as="geometry" />
        </mxCell>
        <mxCell id="P7E3yrC0t6opgTIcdVqb-18" value="" style="rounded=0;whiteSpace=wrap;html=1;" vertex="1" parent="P7E3yrC0t6opgTIcdVqb-20">
          <mxGeometry y="1.25" width="147" height="18.75" as="geometry" />
        </mxCell>
        <mxCell id="P7E3yrC0t6opgTIcdVqb-19" value="record1(p_1, p_2... p_N)" style="text;html=1;align=center;verticalAlign=middle;whiteSpace=wrap;rounded=0;" vertex="1" parent="P7E3yrC0t6opgTIcdVqb-20">
          <mxGeometry x="3.5" width="140" height="18.75" as="geometry" />
        </mxCell>
        <mxCell id="P7E3yrC0t6opgTIcdVqb-21" value="" style="group" vertex="1" connectable="0" parent="1">
          <mxGeometry x="199" y="-875" width="147" height="20" as="geometry" />
        </mxCell>
        <mxCell id="P7E3yrC0t6opgTIcdVqb-22" value="" style="rounded=0;whiteSpace=wrap;html=1;" vertex="1" parent="P7E3yrC0t6opgTIcdVqb-21">
          <mxGeometry y="1.25" width="147" height="18.75" as="geometry" />
        </mxCell>
        <mxCell id="P7E3yrC0t6opgTIcdVqb-23" value="record2(p_1, p_2... p_N)" style="text;html=1;align=center;verticalAlign=middle;whiteSpace=wrap;rounded=0;" vertex="1" parent="P7E3yrC0t6opgTIcdVqb-21">
          <mxGeometry x="3.5" width="140" height="18.75" as="geometry" />
        </mxCell>
        <mxCell id="P7E3yrC0t6opgTIcdVqb-24" value="......" style="text;html=1;align=center;verticalAlign=middle;whiteSpace=wrap;rounded=0;" vertex="1" parent="1">
          <mxGeometry x="241.5" y="-844" width="60" height="20" as="geometry" />
        </mxCell>
        <mxCell id="P7E3yrC0t6opgTIcdVqb-126" style="edgeStyle=orthogonalEdgeStyle;rounded=0;orthogonalLoop=1;jettySize=auto;html=1;exitX=1;exitY=0.75;exitDx=0;exitDy=0;entryX=0.316;entryY=0;entryDx=0;entryDy=0;entryPerimeter=0;" edge="1" parent="1" source="P7E3yrC0t6opgTIcdVqb-28" target="P7E3yrC0t6opgTIcdVqb-116">
          <mxGeometry relative="1" as="geometry">
            <Array as="points">
              <mxPoint x="500" y="-894" />
              <mxPoint x="520" y="-894" />
              <mxPoint x="520" y="-778" />
              <mxPoint x="519" y="-778" />
            </Array>
          </mxGeometry>
        </mxCell>
        <mxCell id="P7E3yrC0t6opgTIcdVqb-28" value="" style="rounded=0;whiteSpace=wrap;html=1;" vertex="1" parent="1">
          <mxGeometry x="400" y="-914" width="100" height="110" as="geometry" />
        </mxCell>
        <mxCell id="P7E3yrC0t6opgTIcdVqb-30" value="" style="endArrow=none;html=1;rounded=0;" edge="1" parent="1" target="P7E3yrC0t6opgTIcdVqb-28">
          <mxGeometry width="50" height="50" relative="1" as="geometry">
            <mxPoint x="400" y="-876.31" as="sourcePoint" />
            <mxPoint x="470" y="-876.31" as="targetPoint" />
          </mxGeometry>
        </mxCell>
        <mxCell id="P7E3yrC0t6opgTIcdVqb-31" value="" style="endArrow=none;html=1;rounded=0;entryX=0.984;entryY=0.359;entryDx=0;entryDy=0;entryPerimeter=0;" edge="1" parent="1">
          <mxGeometry width="50" height="50" relative="1" as="geometry">
            <mxPoint x="400" y="-877" as="sourcePoint" />
            <mxPoint x="498.4000000000001" y="-877.51" as="targetPoint" />
          </mxGeometry>
        </mxCell>
        <mxCell id="P7E3yrC0t6opgTIcdVqb-32" value="&lt;font style=&quot;font-size: 10px;&quot;&gt;K个大模型全部预测正确的记录集(S_A)&lt;/font&gt;" style="text;html=1;align=center;verticalAlign=middle;whiteSpace=wrap;rounded=0;" vertex="1" parent="1">
          <mxGeometry x="405" y="-912" width="90" height="30" as="geometry" />
        </mxCell>
        <mxCell id="P7E3yrC0t6opgTIcdVqb-33" value="&lt;font style=&quot;font-size: 10px;&quot;&gt;部分大模型预测正确的记录集(S_P)&lt;/font&gt;" style="text;html=1;align=center;verticalAlign=middle;whiteSpace=wrap;rounded=0;" vertex="1" parent="1">
          <mxGeometry x="405" y="-875" width="90" height="30" as="geometry" />
        </mxCell>
        <mxCell id="P7E3yrC0t6opgTIcdVqb-35" value="" style="rounded=0;whiteSpace=wrap;html=1;" vertex="1" parent="1">
          <mxGeometry x="539" y="-915" width="90" height="74" as="geometry" />
        </mxCell>
        <mxCell id="P7E3yrC0t6opgTIcdVqb-36" value="" style="endArrow=none;html=1;rounded=0;" edge="1" parent="1" target="P7E3yrC0t6opgTIcdVqb-35">
          <mxGeometry width="50" height="50" relative="1" as="geometry">
            <mxPoint x="539" y="-875.5" as="sourcePoint" />
            <mxPoint x="637" y="-876.5" as="targetPoint" />
          </mxGeometry>
        </mxCell>
        <mxCell id="P7E3yrC0t6opgTIcdVqb-37" value="" style="endArrow=none;html=1;rounded=0;" edge="1" parent="1">
          <mxGeometry width="50" height="50" relative="1" as="geometry">
            <mxPoint x="539" y="-877" as="sourcePoint" />
            <mxPoint x="629" y="-878" as="targetPoint" />
          </mxGeometry>
        </mxCell>
        <mxCell id="P7E3yrC0t6opgTIcdVqb-38" value="&lt;font style=&quot;font-size: 10px;&quot;&gt;领域关键字集合(Key_SA)&lt;/font&gt;" style="text;html=1;align=center;verticalAlign=middle;whiteSpace=wrap;rounded=0;" vertex="1" parent="1">
          <mxGeometry x="552" y="-911" width="63" height="30" as="geometry" />
        </mxCell>
        <mxCell id="P7E3yrC0t6opgTIcdVqb-39" value="&lt;font style=&quot;font-size: 10px;&quot;&gt;领域关键字集合(Key_SP)&lt;/font&gt;" style="text;html=1;align=center;verticalAlign=middle;whiteSpace=wrap;rounded=0;" vertex="1" parent="1">
          <mxGeometry x="548.5" y="-876" width="70" height="30" as="geometry" />
        </mxCell>
        <mxCell id="P7E3yrC0t6opgTIcdVqb-57" style="edgeStyle=orthogonalEdgeStyle;rounded=0;orthogonalLoop=1;jettySize=auto;html=1;exitX=1;exitY=0.5;exitDx=0;exitDy=0;entryX=0;entryY=0.5;entryDx=0;entryDy=0;" edge="1" parent="1" source="P7E3yrC0t6opgTIcdVqb-42" target="P7E3yrC0t6opgTIcdVqb-43">
          <mxGeometry relative="1" as="geometry" />
        </mxCell>
        <mxCell id="P7E3yrC0t6opgTIcdVqb-42" value="待预测数据" style="text;html=1;align=center;verticalAlign=middle;whiteSpace=wrap;rounded=0;" vertex="1" parent="1">
          <mxGeometry x="-148" y="-436" width="70" height="30" as="geometry" />
        </mxCell>
        <mxCell id="P7E3yrC0t6opgTIcdVqb-45" value="" style="group" vertex="1" connectable="0" parent="1">
          <mxGeometry x="-48" y="-446" width="140" height="50" as="geometry" />
        </mxCell>
        <mxCell id="P7E3yrC0t6opgTIcdVqb-43" value="" style="rhombus;whiteSpace=wrap;html=1;" vertex="1" parent="P7E3yrC0t6opgTIcdVqb-45">
          <mxGeometry width="140" height="50" as="geometry" />
        </mxCell>
        <mxCell id="P7E3yrC0t6opgTIcdVqb-44" value="与哪记录集更相近？" style="text;html=1;align=center;verticalAlign=middle;whiteSpace=wrap;rounded=0;" vertex="1" parent="P7E3yrC0t6opgTIcdVqb-45">
          <mxGeometry x="36" y="14" width="80" height="30" as="geometry" />
        </mxCell>
        <mxCell id="P7E3yrC0t6opgTIcdVqb-66" value="P1" style="ellipse;whiteSpace=wrap;html=1;aspect=fixed;fillColor=#ffe6cc;strokeColor=#d79b00;" vertex="1" parent="P7E3yrC0t6opgTIcdVqb-45">
          <mxGeometry x="11" y="-20" width="25" height="25" as="geometry" />
        </mxCell>
        <mxCell id="P7E3yrC0t6opgTIcdVqb-58" style="edgeStyle=orthogonalEdgeStyle;rounded=0;orthogonalLoop=1;jettySize=auto;html=1;exitX=1;exitY=0.5;exitDx=0;exitDy=0;entryX=0;entryY=0.5;entryDx=0;entryDy=0;" edge="1" parent="1" source="P7E3yrC0t6opgTIcdVqb-46" target="P7E3yrC0t6opgTIcdVqb-55">
          <mxGeometry relative="1" as="geometry">
            <mxPoint x="272.0000000000002" y="-465.875" as="targetPoint" />
          </mxGeometry>
        </mxCell>
        <mxCell id="P7E3yrC0t6opgTIcdVqb-46" value="各模型结果一致性高的记录集" style="rounded=0;whiteSpace=wrap;html=1;" vertex="1" parent="1">
          <mxGeometry x="152" y="-486" width="90" height="40" as="geometry" />
        </mxCell>
        <mxCell id="P7E3yrC0t6opgTIcdVqb-61" style="edgeStyle=orthogonalEdgeStyle;rounded=0;orthogonalLoop=1;jettySize=auto;html=1;exitX=1;exitY=0.5;exitDx=0;exitDy=0;entryX=0;entryY=0.5;entryDx=0;entryDy=0;" edge="1" parent="1" source="P7E3yrC0t6opgTIcdVqb-47" target="P7E3yrC0t6opgTIcdVqb-60">
          <mxGeometry relative="1" as="geometry" />
        </mxCell>
        <mxCell id="P7E3yrC0t6opgTIcdVqb-47" value="各模型结果一致性低的记录集" style="rounded=0;whiteSpace=wrap;html=1;" vertex="1" parent="1">
          <mxGeometry x="152" y="-405" width="90" height="40" as="geometry" />
        </mxCell>
        <mxCell id="P7E3yrC0t6opgTIcdVqb-49" value="抽取领域关键字" style="text;html=1;align=center;verticalAlign=middle;whiteSpace=wrap;rounded=0;" vertex="1" parent="1">
          <mxGeometry x="404" y="-941" width="90" height="30" as="geometry" />
        </mxCell>
        <mxCell id="P7E3yrC0t6opgTIcdVqb-52" style="edgeStyle=orthogonalEdgeStyle;rounded=0;orthogonalLoop=1;jettySize=auto;html=1;exitX=0.5;exitY=1;exitDx=0;exitDy=0;entryX=0;entryY=0.5;entryDx=0;entryDy=0;" edge="1" parent="1">
          <mxGeometry relative="1" as="geometry">
            <mxPoint x="22.000000000000227" y="-394.9999999999999" as="sourcePoint" />
            <mxPoint x="151.99999999999977" y="-384" as="targetPoint" />
            <Array as="points">
              <mxPoint x="22" y="-385" />
              <mxPoint x="122" y="-385" />
              <mxPoint x="122" y="-384" />
            </Array>
          </mxGeometry>
        </mxCell>
        <mxCell id="P7E3yrC0t6opgTIcdVqb-54" style="edgeStyle=orthogonalEdgeStyle;rounded=0;orthogonalLoop=1;jettySize=auto;html=1;exitX=0.5;exitY=0;exitDx=0;exitDy=0;entryX=0;entryY=0.5;entryDx=0;entryDy=0;" edge="1" parent="1" source="P7E3yrC0t6opgTIcdVqb-43" target="P7E3yrC0t6opgTIcdVqb-46">
          <mxGeometry relative="1" as="geometry" />
        </mxCell>
        <mxCell id="P7E3yrC0t6opgTIcdVqb-55" value="" style="rounded=0;whiteSpace=wrap;html=1;" vertex="1" parent="1">
          <mxGeometry x="282" y="-486" width="120" height="40" as="geometry" />
        </mxCell>
        <mxCell id="P7E3yrC0t6opgTIcdVqb-56" value="各模型分别预测并投票得出预测结果" style="text;html=1;align=center;verticalAlign=middle;whiteSpace=wrap;rounded=0;" vertex="1" parent="1">
          <mxGeometry x="292" y="-481" width="100" height="30" as="geometry" />
        </mxCell>
        <mxCell id="P7E3yrC0t6opgTIcdVqb-59" value="" style="rounded=0;whiteSpace=wrap;html=1;" vertex="1" parent="1">
          <mxGeometry x="282" y="-406" width="120" height="40" as="geometry" />
        </mxCell>
        <mxCell id="P7E3yrC0t6opgTIcdVqb-60" value="用该领域上表现最优的模型进行预测得出结果" style="text;html=1;align=center;verticalAlign=middle;whiteSpace=wrap;rounded=0;" vertex="1" parent="1">
          <mxGeometry x="279.5" y="-401" width="125" height="30" as="geometry" />
        </mxCell>
        <mxCell id="P7E3yrC0t6opgTIcdVqb-62" value="T1" style="ellipse;whiteSpace=wrap;html=1;aspect=fixed;fillColor=#ffe6cc;strokeColor=#d79b00;" vertex="1" parent="1">
          <mxGeometry x="43" y="-941" width="25" height="25" as="geometry" />
        </mxCell>
        <mxCell id="P7E3yrC0t6opgTIcdVqb-64" value="T2" style="ellipse;whiteSpace=wrap;html=1;aspect=fixed;fillColor=#ffe6cc;strokeColor=#d79b00;" vertex="1" parent="1">
          <mxGeometry x="324" y="-941.5" width="25" height="25" as="geometry" />
        </mxCell>
        <mxCell id="P7E3yrC0t6opgTIcdVqb-65" value="T3" style="ellipse;whiteSpace=wrap;html=1;aspect=fixed;fillColor=#ffe6cc;strokeColor=#d79b00;" vertex="1" parent="1">
          <mxGeometry x="439" y="-964" width="25" height="25" as="geometry" />
        </mxCell>
        <mxCell id="P7E3yrC0t6opgTIcdVqb-67" value="P2" style="ellipse;whiteSpace=wrap;html=1;aspect=fixed;fillColor=#ffe6cc;strokeColor=#d79b00;" vertex="1" parent="1">
          <mxGeometry x="377" y="-511" width="25" height="25" as="geometry" />
        </mxCell>
        <mxCell id="P7E3yrC0t6opgTIcdVqb-68" value="P3" style="ellipse;whiteSpace=wrap;html=1;aspect=fixed;fillColor=#ffe6cc;strokeColor=#d79b00;" vertex="1" parent="1">
          <mxGeometry x="372" y="-430" width="25" height="25" as="geometry" />
        </mxCell>
        <mxCell id="P7E3yrC0t6opgTIcdVqb-69" value="T3" style="ellipse;whiteSpace=wrap;html=1;aspect=fixed;fillColor=#ffe6cc;strokeColor=#d79b00;" vertex="1" parent="1">
          <mxGeometry x="-137.5" y="-300" width="25" height="25" as="geometry" />
        </mxCell>
        <mxCell id="P7E3yrC0t6opgTIcdVqb-73" style="edgeStyle=orthogonalEdgeStyle;rounded=0;orthogonalLoop=1;jettySize=auto;html=1;exitX=1;exitY=0.5;exitDx=0;exitDy=0;entryX=0;entryY=0.5;entryDx=0;entryDy=0;" edge="1" parent="1" source="P7E3yrC0t6opgTIcdVqb-70" target="P7E3yrC0t6opgTIcdVqb-71">
          <mxGeometry relative="1" as="geometry" />
        </mxCell>
        <mxCell id="P7E3yrC0t6opgTIcdVqb-70" value="基于LDA模型提取主题和关键字" style="rounded=0;whiteSpace=wrap;html=1;" vertex="1" parent="1">
          <mxGeometry x="47" y="-302.87" width="100" height="37.5" as="geometry" />
        </mxCell>
        <mxCell id="P7E3yrC0t6opgTIcdVqb-71" value="对照行业术语表，对关键字加权" style="rounded=0;whiteSpace=wrap;html=1;" vertex="1" parent="1">
          <mxGeometry x="249" y="-302.87" width="100" height="37.5" as="geometry" />
        </mxCell>
        <mxCell id="P7E3yrC0t6opgTIcdVqb-72" value="关键字 + score" style="text;html=1;align=center;verticalAlign=middle;whiteSpace=wrap;rounded=0;" vertex="1" parent="1">
          <mxGeometry x="154" y="-309.62" width="90" height="30" as="geometry" />
        </mxCell>
        <mxCell id="P7E3yrC0t6opgTIcdVqb-80" style="edgeStyle=orthogonalEdgeStyle;rounded=0;orthogonalLoop=1;jettySize=auto;html=1;exitX=1;exitY=0.5;exitDx=0;exitDy=0;entryX=0;entryY=0.5;entryDx=0;entryDy=0;" edge="1" parent="1" source="P7E3yrC0t6opgTIcdVqb-79" target="P7E3yrC0t6opgTIcdVqb-70">
          <mxGeometry relative="1" as="geometry" />
        </mxCell>
        <mxCell id="P7E3yrC0t6opgTIcdVqb-79" value="K个模型全部预测正确的记录集(S_A)" style="rounded=0;whiteSpace=wrap;html=1;" vertex="1" parent="1">
          <mxGeometry x="-98" y="-302.87" width="107" height="37.5" as="geometry" />
        </mxCell>
        <mxCell id="P7E3yrC0t6opgTIcdVqb-81" style="edgeStyle=orthogonalEdgeStyle;rounded=0;orthogonalLoop=1;jettySize=auto;html=1;exitX=1;exitY=0.5;exitDx=0;exitDy=0;entryX=0;entryY=0.5;entryDx=0;entryDy=0;" edge="1" parent="1" source="P7E3yrC0t6opgTIcdVqb-82" target="P7E3yrC0t6opgTIcdVqb-83">
          <mxGeometry relative="1" as="geometry" />
        </mxCell>
        <mxCell id="P7E3yrC0t6opgTIcdVqb-82" value="基于LDA模型提取主题和关键字" style="rounded=0;whiteSpace=wrap;html=1;" vertex="1" parent="1">
          <mxGeometry x="47" y="-243.25" width="100" height="37.5" as="geometry" />
        </mxCell>
        <mxCell id="P7E3yrC0t6opgTIcdVqb-88" style="edgeStyle=orthogonalEdgeStyle;rounded=0;orthogonalLoop=1;jettySize=auto;html=1;exitX=1;exitY=0.5;exitDx=0;exitDy=0;entryX=0;entryY=0.5;entryDx=0;entryDy=0;" edge="1" parent="1" source="P7E3yrC0t6opgTIcdVqb-83" target="P7E3yrC0t6opgTIcdVqb-87">
          <mxGeometry relative="1" as="geometry" />
        </mxCell>
        <mxCell id="P7E3yrC0t6opgTIcdVqb-83" value="对照行业术语表，对关键字加权" style="rounded=0;whiteSpace=wrap;html=1;" vertex="1" parent="1">
          <mxGeometry x="249" y="-243.25" width="100" height="37.5" as="geometry" />
        </mxCell>
        <mxCell id="P7E3yrC0t6opgTIcdVqb-84" value="关键字 + score" style="text;html=1;align=center;verticalAlign=middle;whiteSpace=wrap;rounded=0;" vertex="1" parent="1">
          <mxGeometry x="154" y="-250" width="90" height="30" as="geometry" />
        </mxCell>
        <mxCell id="P7E3yrC0t6opgTIcdVqb-85" style="edgeStyle=orthogonalEdgeStyle;rounded=0;orthogonalLoop=1;jettySize=auto;html=1;exitX=1;exitY=0.5;exitDx=0;exitDy=0;entryX=0;entryY=0.5;entryDx=0;entryDy=0;" edge="1" parent="1" source="P7E3yrC0t6opgTIcdVqb-86" target="P7E3yrC0t6opgTIcdVqb-82">
          <mxGeometry relative="1" as="geometry" />
        </mxCell>
        <mxCell id="P7E3yrC0t6opgTIcdVqb-86" value="部分大模型预测正确的记录集(S_P)" style="rounded=0;whiteSpace=wrap;html=1;" vertex="1" parent="1">
          <mxGeometry x="-99" y="-243.25" width="108" height="37.5" as="geometry" />
        </mxCell>
        <mxCell id="P7E3yrC0t6opgTIcdVqb-87" value="对于不存在于S_h中的关键字进行加权" style="rounded=0;whiteSpace=wrap;html=1;" vertex="1" parent="1">
          <mxGeometry x="382" y="-243.25" width="110" height="37.5" as="geometry" />
        </mxCell>
        <mxCell id="P7E3yrC0t6opgTIcdVqb-98" value="P1" style="ellipse;whiteSpace=wrap;html=1;aspect=fixed;fillColor=#ffe6cc;strokeColor=#d79b00;" vertex="1" parent="1">
          <mxGeometry x="-137.5" y="-120" width="25" height="25" as="geometry" />
        </mxCell>
        <mxCell id="P7E3yrC0t6opgTIcdVqb-99" value="分别计算待测数据与S_h和S_l中关键字的加权相似度分值" style="rounded=0;whiteSpace=wrap;html=1;" vertex="1" parent="1">
          <mxGeometry x="-90" y="-137.5" width="160" height="60" as="geometry" />
        </mxCell>
        <mxCell id="P7E3yrC0t6opgTIcdVqb-100" value="P3" style="ellipse;whiteSpace=wrap;html=1;aspect=fixed;fillColor=#ffe6cc;strokeColor=#d79b00;" vertex="1" parent="1">
          <mxGeometry x="-137.5" y="10" width="25" height="25" as="geometry" />
        </mxCell>
        <mxCell id="P7E3yrC0t6opgTIcdVqb-102" value="&lt;div&gt;1）对训练集中每个q_i，得到最好的top-N 个模型，记为&amp;nbsp; m_i1,m_i2,m_i3&lt;/div&gt;&lt;div&gt;2）推理时，对于给定的Query，找到最相近的top-N个查询，即 q_1, q_2, q_3&lt;/div&gt;&lt;div&gt;3）结合2）1）计算各模型得分，考虑位置加权，得分最高的模型视为是最佳模型。&lt;/div&gt;&lt;div&gt;位置加权方法。这里面有两个位置（步骤1）和2））。参照X-Class: Text Classification with Extremely Weak Supervision中，位置 i 的权重为 1/i。&lt;/div&gt;" style="text;html=1;align=left;verticalAlign=middle;whiteSpace=wrap;rounded=0;" vertex="1" parent="1">
          <mxGeometry x="-100" y="20" width="530" height="30" as="geometry" />
        </mxCell>
        <mxCell id="P7E3yrC0t6opgTIcdVqb-107" value="&lt;font color=&quot;#0000ff&quot;&gt;训练阶段&lt;/font&gt;" style="text;html=1;align=center;verticalAlign=middle;whiteSpace=wrap;rounded=0;" vertex="1" parent="1">
          <mxGeometry x="-155" y="-991" width="60" height="30" as="geometry" />
        </mxCell>
        <mxCell id="P7E3yrC0t6opgTIcdVqb-110" value="&lt;font color=&quot;#0000ff&quot;&gt;预测阶段&lt;/font&gt;" style="text;html=1;align=center;verticalAlign=middle;whiteSpace=wrap;rounded=0;" vertex="1" parent="1">
          <mxGeometry x="-150" y="-518" width="60" height="30" as="geometry" />
        </mxCell>
        <mxCell id="P7E3yrC0t6opgTIcdVqb-111" value="" style="endArrow=none;html=1;rounded=0;entryX=0.984;entryY=0.359;entryDx=0;entryDy=0;entryPerimeter=0;" edge="1" parent="1">
          <mxGeometry width="50" height="50" relative="1" as="geometry">
            <mxPoint x="400" y="-839" as="sourcePoint" />
            <mxPoint x="498.4000000000001" y="-839.51" as="targetPoint" />
          </mxGeometry>
        </mxCell>
        <mxCell id="P7E3yrC0t6opgTIcdVqb-128" style="edgeStyle=orthogonalEdgeStyle;rounded=0;orthogonalLoop=1;jettySize=auto;html=1;" edge="1" parent="1">
          <mxGeometry relative="1" as="geometry">
            <mxPoint x="520" y="-754" as="targetPoint" />
            <mxPoint x="499" y="-861" as="sourcePoint" />
          </mxGeometry>
        </mxCell>
        <mxCell id="P7E3yrC0t6opgTIcdVqb-112" value="&lt;font style=&quot;font-size: 10px;&quot;&gt;K个大模型全部预测错误的记录集(S_N)&lt;/font&gt;" style="text;html=1;align=center;verticalAlign=middle;whiteSpace=wrap;rounded=0;" vertex="1" parent="1">
          <mxGeometry x="405" y="-838" width="90" height="30" as="geometry" />
        </mxCell>
        <mxCell id="P7E3yrC0t6opgTIcdVqb-114" style="edgeStyle=orthogonalEdgeStyle;rounded=0;orthogonalLoop=1;jettySize=auto;html=1;exitX=1;exitY=0.5;exitDx=0;exitDy=0;" edge="1" parent="1">
          <mxGeometry relative="1" as="geometry">
            <mxPoint x="501" y="-894" as="sourcePoint" />
            <mxPoint x="538" y="-894" as="targetPoint" />
          </mxGeometry>
        </mxCell>
        <mxCell id="P7E3yrC0t6opgTIcdVqb-115" style="edgeStyle=orthogonalEdgeStyle;rounded=0;orthogonalLoop=1;jettySize=auto;html=1;exitX=1;exitY=0.5;exitDx=0;exitDy=0;" edge="1" parent="1">
          <mxGeometry relative="1" as="geometry">
            <mxPoint x="502" y="-861" as="sourcePoint" />
            <mxPoint x="539" y="-861" as="targetPoint" />
          </mxGeometry>
        </mxCell>
        <mxCell id="P7E3yrC0t6opgTIcdVqb-116" value="" style="rounded=0;whiteSpace=wrap;html=1;" vertex="1" parent="1">
          <mxGeometry x="465" y="-751.5" width="173" height="41" as="geometry" />
        </mxCell>
        <mxCell id="P7E3yrC0t6opgTIcdVqb-117" value="" style="group" vertex="1" connectable="0" parent="1">
          <mxGeometry x="472" y="-741" width="158" height="20" as="geometry" />
        </mxCell>
        <mxCell id="P7E3yrC0t6opgTIcdVqb-118" value="" style="rounded=0;whiteSpace=wrap;html=1;" vertex="1" parent="P7E3yrC0t6opgTIcdVqb-117">
          <mxGeometry y="1.25" width="158" height="18.75" as="geometry" />
        </mxCell>
        <mxCell id="P7E3yrC0t6opgTIcdVqb-119" value="record_i(m_1, m_2... m_n)" style="text;html=1;align=center;verticalAlign=middle;whiteSpace=wrap;rounded=0;" vertex="1" parent="P7E3yrC0t6opgTIcdVqb-117">
          <mxGeometry x="5.5" width="144.5" height="18.75" as="geometry" />
        </mxCell>
        <mxCell id="P7E3yrC0t6opgTIcdVqb-120" value="T4" style="ellipse;whiteSpace=wrap;html=1;aspect=fixed;fillColor=#ffe6cc;strokeColor=#d79b00;" vertex="1" parent="1">
          <mxGeometry x="461" y="-779" width="25" height="25" as="geometry" />
        </mxCell>
      </root>
    </mxGraphModel>
  </diagram>
</mxfile>
